<svg viewBox="0 0 330 200" xmlns="http://www.w3.org/2000/svg"><g><g><g><g><g><line x1="51.41600036621094" y1="178.01999950408936" x2="46.41600036621094" y2="178.01999950408936" style="visibility: inherit;" fill="rgb(0, 0, 0)" stroke="rgb(204, 204, 204)" stroke-width="1px"></line><line x1="51.41600036621094" y1="164.32615338839017" x2="46.41600036621094" y2="164.32615338839017" style="visibility: inherit;" fill="rgb(0, 0, 0)" stroke="rgb(204, 204, 204)" stroke-width="1px"></line><line x1="51.41600036621094" y1="150.63230727269098" x2="46.41600036621094" y2="150.63230727269098" style="visibility: inherit;" fill="rgb(0, 0, 0)" stroke="rgb(204, 204, 204)" stroke-width="1px"></line><line x1="51.41600036621094" y1="136.93846115699182" x2="46.41600036621094" y2="136.93846115699182" style="visibility: inherit;" fill="rgb(0, 0, 0)" stroke="rgb(204, 204, 204)" stroke-width="1px"></line><line x1="51.41600036621094" y1="123.24461504129263" x2="46.41600036621094" y2="123.24461504129263" style="visibility: inherit;" fill="rgb(0, 0, 0)" stroke="rgb(204, 204, 204)" stroke-width="1px"></line><line x1="51.41600036621094" y1="109.55076892559345" x2="46.41600036621094" y2="109.55076892559345" style="visibility: inherit;" fill="rgb(0, 0, 0)" stroke="rgb(204, 204, 204)" stroke-width="1px"></line><line x1="51.41600036621094" y1="95.85692280989426" x2="46.41600036621094" y2="95.85692280989426" style="visibility: inherit;" fill="rgb(0, 0, 0)" stroke="rgb(204, 204, 204)" stroke-width="1px"></line><line x1="51.41600036621094" y1="82.1630766941951" x2="46.41600036621094" y2="82.1630766941951" style="visibility: inherit;" fill="rgb(0, 0, 0)" stroke="rgb(204, 204, 204)" stroke-width="1px"></line><line x1="51.41600036621094" y1="68.4692305784959" x2="46.41600036621094" y2="68.4692305784959" style="visibility: inherit;" fill="rgb(0, 0, 0)" stroke="rgb(204, 204, 204)" stroke-width="1px"></line><line x1="51.41600036621094" y1="54.77538446279672" x2="46.41600036621094" y2="54.77538446279672" style="visibility: inherit;" fill="rgb(0, 0, 0)" stroke="rgb(204, 204, 204)" stroke-width="1px"></line><line x1="51.41600036621094" y1="41.081538347097535" x2="46.41600036621094" y2="41.081538347097535" style="visibility: inherit;" fill="rgb(0, 0, 0)" stroke="rgb(204, 204, 204)" stroke-width="1px"></line><line x1="51.41600036621094" y1="27.387692231398375" x2="46.41600036621094" y2="27.387692231398375" style="visibility: inherit;" fill="rgb(0, 0, 0)" stroke="rgb(204, 204, 204)" stroke-width="1px"></line><line x1="51.41600036621094" y1="13.69384611569916" x2="46.41600036621094" y2="13.69384611569916" style="visibility: inherit;" fill="rgb(0, 0, 0)" stroke="rgb(204, 204, 204)" stroke-width="1px"></line><line x1="51.41600036621094" y1="0" x2="46.41600036621094" y2="0" style="visibility: inherit;" fill="rgb(0, 0, 0)" stroke="rgb(204, 204, 204)" stroke-width="1px"></line></g><g transform="translate(41.41600036621094, 0)"><text style="text-anchor: end; visibility: hidden; font-family: &quot;Helvetica Neue&quot;, sans-serif; font-size: 12px; font-weight: 200;" x="0" y="178.01999950408936" dx="0em" dy="0.3em" fill="rgb(50, 49, 63)" stroke="none" stroke-width="1px">-0.5</text><text style="text-anchor: end; visibility: inherit; font-family: &quot;Helvetica Neue&quot;, sans-serif; font-size: 12px; font-weight: 200;" x="0" y="164.32615338839017" dx="0em" dy="0.3em" fill="rgb(50, 49, 63)" stroke="none" stroke-width="1px">0</text><text style="text-anchor: end; visibility: hidden; font-family: &quot;Helvetica Neue&quot;, sans-serif; font-size: 12px; font-weight: 200;" x="0" y="150.63230727269098" dx="0em" dy="0.3em" fill="rgb(50, 49, 63)" stroke="none" stroke-width="1px">0.5</text><text style="text-anchor: end; visibility: inherit; font-family: &quot;Helvetica Neue&quot;, sans-serif; font-size: 12px; font-weight: 200;" x="0" y="136.93846115699182" dx="0em" dy="0.3em" fill="rgb(50, 49, 63)" stroke="none" stroke-width="1px">1</text><text style="text-anchor: end; visibility: hidden; font-family: &quot;Helvetica Neue&quot;, sans-serif; font-size: 12px; font-weight: 200;" x="0" y="123.24461504129263" dx="0em" dy="0.3em" fill="rgb(50, 49, 63)" stroke="none" stroke-width="1px">1.5</text><text style="text-anchor: end; visibility: inherit; font-family: &quot;Helvetica Neue&quot;, sans-serif; font-size: 12px; font-weight: 200;" x="0" y="109.55076892559345" dx="0em" dy="0.3em" fill="rgb(50, 49, 63)" stroke="none" stroke-width="1px">2</text><text style="text-anchor: end; visibility: hidden; font-family: &quot;Helvetica Neue&quot;, sans-serif; font-size: 12px; font-weight: 200;" x="0" y="95.85692280989426" dx="0em" dy="0.3em" fill="rgb(50, 49, 63)" stroke="none" stroke-width="1px">2.5</text><text style="text-anchor: end; visibility: inherit; font-family: &quot;Helvetica Neue&quot;, sans-serif; font-size: 12px; font-weight: 200;" x="0" y="82.1630766941951" dx="0em" dy="0.3em" fill="rgb(50, 49, 63)" stroke="none" stroke-width="1px">3</text><text style="text-anchor: end; visibility: hidden; font-family: &quot;Helvetica Neue&quot;, sans-serif; font-size: 12px; font-weight: 200;" x="0" y="68.4692305784959" dx="0em" dy="0.3em" fill="rgb(50, 49, 63)" stroke="none" stroke-width="1px">3.5</text><text style="text-anchor: end; visibility: inherit; font-family: &quot;Helvetica Neue&quot;, sans-serif; font-size: 12px; font-weight: 200;" x="0" y="54.77538446279672" dx="0em" dy="0.3em" fill="rgb(50, 49, 63)" stroke="none" stroke-width="1px">4</text><text style="text-anchor: end; visibility: hidden; font-family: &quot;Helvetica Neue&quot;, sans-serif; font-size: 12px; font-weight: 200;" x="0" y="41.081538347097535" dx="0em" dy="0.3em" fill="rgb(50, 49, 63)" stroke="none" stroke-width="1px">4.5</text><text style="text-anchor: end; visibility: inherit; font-family: &quot;Helvetica Neue&quot;, sans-serif; font-size: 12px; font-weight: 200;" x="0" y="27.387692231398375" dx="0em" dy="0.3em" fill="rgb(50, 49, 63)" stroke="none" stroke-width="1px">5</text><text style="text-anchor: end; visibility: hidden; font-family: &quot;Helvetica Neue&quot;, sans-serif; font-size: 12px; font-weight: 200;" x="0" y="13.69384611569916" dx="0em" dy="0.3em" fill="rgb(50, 49, 63)" stroke="none" stroke-width="1px">5.5</text><text style="text-anchor: end; visibility: hidden; font-family: &quot;Helvetica Neue&quot;, sans-serif; font-size: 12px; font-weight: 200;" x="0" y="0" dx="0em" dy="0.3em" fill="rgb(50, 49, 63)" stroke="none" stroke-width="1px">6</text></g><line x1="51.41600036621094" y1="0" x2="51.41600036621094" y2="178.01999950408936" fill="rgb(0, 0, 0)" stroke="rgb(204, 204, 204)" stroke-width="1px"></line></g></g><g transform="translate(51, 0)" clip-path="url(#clip_0)"><clipPath id="clip_0"><rect width="278" height="178"></rect></clipPath><g><g><g><line x1="0" y1="0" x2="0" y2="178.01999950408936" fill="rgb(0, 0, 0)" stroke="rgb(60, 60, 60)" stroke-width="1px" opacity="0.25"></line><line x1="19.89885711669922" y1="0" x2="19.89885711669922" y2="178.01999950408936" fill="rgb(0, 0, 0)" stroke="rgb(60, 60, 60)" stroke-width="1px" opacity="0.25"></line><line x1="39.79771423339844" y1="0" x2="39.79771423339844" y2="178.01999950408936" fill="rgb(0, 0, 0)" stroke="rgb(60, 60, 60)" stroke-width="1px" opacity="0.25"></line><line x1="59.696571350097656" y1="0" x2="59.696571350097656" y2="178.01999950408936" fill="rgb(0, 0, 0)" stroke="rgb(60, 60, 60)" stroke-width="1px" opacity="0.25"></line><line x1="79.59542846679688" y1="0" x2="79.59542846679688" y2="178.01999950408936" fill="rgb(0, 0, 0)" stroke="rgb(60, 60, 60)" stroke-width="1px" opacity="0.25"></line><line x1="99.4942855834961" y1="0" x2="99.4942855834961" y2="178.01999950408936" fill="rgb(0, 0, 0)" stroke="rgb(60, 60, 60)" stroke-width="1px" opacity="0.25"></line><line x1="119.39314270019531" y1="0" x2="119.39314270019531" y2="178.01999950408936" fill="rgb(0, 0, 0)" stroke="rgb(60, 60, 60)" stroke-width="1px" opacity="0.25"></line><line x1="139.29199981689453" y1="0" x2="139.29199981689453" y2="178.01999950408936" fill="rgb(0, 0, 0)" stroke="rgb(60, 60, 60)" stroke-width="1px" opacity="0.25"></line><line x1="159.19085693359375" y1="0" x2="159.19085693359375" y2="178.01999950408936" fill="rgb(0, 0, 0)" stroke="rgb(60, 60, 60)" stroke-width="1px" opacity="0.25"></line><line x1="179.08971405029297" y1="0" x2="179.08971405029297" y2="178.01999950408936" fill="rgb(0, 0, 0)" stroke="rgb(60, 60, 60)" stroke-width="1px" opacity="0.25"></line><line x1="198.9885711669922" y1="0" x2="198.9885711669922" y2="178.01999950408936" fill="rgb(0, 0, 0)" stroke="rgb(60, 60, 60)" stroke-width="1px" opacity="0.25"></line><line x1="218.8874282836914" y1="0" x2="218.8874282836914" y2="178.01999950408936" fill="rgb(0, 0, 0)" stroke="rgb(60, 60, 60)" stroke-width="1px" opacity="0.25"></line><line x1="238.78628540039062" y1="0" x2="238.78628540039062" y2="178.01999950408936" fill="rgb(0, 0, 0)" stroke="rgb(60, 60, 60)" stroke-width="1px" opacity="0.25"></line><line x1="258.68514251708984" y1="0" x2="258.68514251708984" y2="178.01999950408936" fill="rgb(0, 0, 0)" stroke="rgb(60, 60, 60)" stroke-width="1px" opacity="0.25"></line><line x1="278.58399963378906" y1="0" x2="278.58399963378906" y2="178.01999950408936" fill="rgb(0, 0, 0)" stroke="rgb(60, 60, 60)" stroke-width="1px" opacity="0.25"></line></g><g><line x1="0" y1="178.01999950408936" x2="278.58399963378906" y2="178.01999950408936" fill="rgb(0, 0, 0)" stroke="rgb(60, 60, 60)" stroke-width="1px" opacity="0.25"></line><line x1="0" y1="164.32615338839017" x2="278.58399963378906" y2="164.32615338839017" fill="rgb(0, 0, 0)" stroke="rgb(60, 60, 60)" stroke-width="1px" opacity="0.25"></line><line x1="0" y1="150.63230727269098" x2="278.58399963378906" y2="150.63230727269098" fill="rgb(0, 0, 0)" stroke="rgb(60, 60, 60)" stroke-width="1px" opacity="0.25"></line><line x1="0" y1="136.93846115699182" x2="278.58399963378906" y2="136.93846115699182" fill="rgb(0, 0, 0)" stroke="rgb(60, 60, 60)" stroke-width="1px" opacity="0.25"></line><line x1="0" y1="123.24461504129263" x2="278.58399963378906" y2="123.24461504129263" fill="rgb(0, 0, 0)" stroke="rgb(60, 60, 60)" stroke-width="1px" opacity="0.25"></line><line x1="0" y1="109.55076892559345" x2="278.58399963378906" y2="109.55076892559345" fill="rgb(0, 0, 0)" stroke="rgb(60, 60, 60)" stroke-width="1px" opacity="0.25"></line><line x1="0" y1="95.85692280989426" x2="278.58399963378906" y2="95.85692280989426" fill="rgb(0, 0, 0)" stroke="rgb(60, 60, 60)" stroke-width="1px" opacity="0.25"></line><line x1="0" y1="82.1630766941951" x2="278.58399963378906" y2="82.1630766941951" fill="rgb(0, 0, 0)" stroke="rgb(60, 60, 60)" stroke-width="1px" opacity="0.25"></line><line x1="0" y1="68.4692305784959" x2="278.58399963378906" y2="68.4692305784959" fill="rgb(0, 0, 0)" stroke="rgb(60, 60, 60)" stroke-width="1px" opacity="0.25"></line><line x1="0" y1="54.77538446279672" x2="278.58399963378906" y2="54.77538446279672" fill="rgb(0, 0, 0)" stroke="rgb(60, 60, 60)" stroke-width="1px" opacity="0.25"></line><line x1="0" y1="41.081538347097535" x2="278.58399963378906" y2="41.081538347097535" fill="rgb(0, 0, 0)" stroke="rgb(60, 60, 60)" stroke-width="1px" opacity="0.25"></line><line x1="0" y1="27.387692231398375" x2="278.58399963378906" y2="27.387692231398375" fill="rgb(0, 0, 0)" stroke="rgb(60, 60, 60)" stroke-width="1px" opacity="0.25"></line><line x1="0" y1="13.69384611569916" x2="278.58399963378906" y2="13.69384611569916" fill="rgb(0, 0, 0)" stroke="rgb(60, 60, 60)" stroke-width="1px" opacity="0.25"></line><line x1="0" y1="0" x2="278.58399963378906" y2="0" fill="rgb(0, 0, 0)" stroke="rgb(60, 60, 60)" stroke-width="1px" opacity="0.25"></line></g></g></g><g><g><line x1="0" y1="164.32615338839017" x2="278.58399963378906" y2="164.32615338839017" fill="rgb(0, 0, 0)" stroke="rgb(153, 153, 153)" stroke-width="1.5px"></line></g></g><g><g><line x1="19.89885711669922" y1="0" x2="19.89885711669922" y2="178.01999950408936" fill="rgb(0, 0, 0)" stroke="rgb(153, 153, 153)" stroke-width="1.5px"></line></g></g><g><g><g><g><g><path style="fill: none;" stroke="rgb(255, 112, 67)" stroke-width="2px" d="M25.510334823608396,-2.4359998489038617L25.66952568054199,8.203057567527736L25.739171680450436,14.878948759561382L25.74912110900879,19.09431041945885L26.21674425125122,20.915072785317534L26.346086822509765,22.333768987143998L26.48537882232666,22.920537847691918L26.584873107910155,23.161096157000173L27.01269853591919,22.13176472216108L27.092293964385988,21.4588465894372L27.520119392395017,21.647761029931388L27.57981596374512,21.850378977989806L27.719107963562013,22.170469349719838L27.73900682067871,22.27053786006732L27.888248249053955,22.543563244813072L27.947944820404054,22.869812151538838L28.226528820037842,22.714256534697597L29.311016532897952,23.078668018735442L29.569701675415036,23.598158067965443L29.57965110397339,23.907109606875707L29.639347675323485,24.18084612298179L29.907982246398927,37.13988372963496L29.997527103424073,40.002151082818216L30.485049102783204,38.109043585530685L30.514897388458255,36.88047775059849L30.783531959533693,34.728255942959834L30.892975673675537,32.55951979946829L31.460093101501467,32.13320509724238L31.649132244110106,32.25854905275068L32.45503595733643,31.504583599120224L33.002254528045654,31.337851487791426L33.032102813720705,31.41868064747632L33.1713948135376,31.428417638305262L33.211192527771,31.455478858575503L33.68876509857178,31.782274995273212L33.758411098480224,32.0665249904427L33.97729852676392,32.176264874540294L34.09669166946411,32.42672268728299L34.1961859550476,32.645690183622065L34.49466881179809,32.9737149468595L34.60411252593994,33.324762137628966L34.74340452575684,33.67694465208885L35.06178623962403,27.6774421827798L35.35031966781616,29.14661178551924L35.50951052474976,30.190453198552035L35.66870138168335,32.33636312178945L35.70849909591674,32.568338288454896L35.87763938140869,33.566841694377075L36.225869380950925,34.74841174156157L36.73329023742676,36.49073913064569L36.91237995147705,37.65765653813699L37.001924808502196,38.47566085768372L37.141216808319086,39.15438398933114L37.161115665435794,39.65983552528189L37.190963951110845,40.09428620441213L37.62873880767822,41.14405676310162L38.076463092803955,42.331406949005554L38.25555280685425,43.49930000816917L38.34509766387939,44.13421089443949L38.47444023513793,44.64356857626274L38.504288520812985,45.04161810929824L38.58388394927979,45.53437092704968L38.98186109161377,46.335079310911226L39.151001377105715,46.66241601791478L39.25049566268921,46.83222896255418L39.280343948364255,46.869232061901954L39.81761309051514,46.99828127580844L40.16584309005737,45.71820508588806L40.5737696609497,47.780010557994245L40.6533650894165,49.13834317833661L40.693162803649905,50.40135568170464L40.76280880355835,50.909523591736644L41.66820680236817,51.49951777709086L41.78759994506836,51.55513153297473L41.906993087768555,51.734321821081366L42.10598165893555,51.96141371894936L42.1557288017273,51.96463465546506L42.16567823028564,51.888936507869246L42.364666801452636,52.47458774401392L42.41441394424439,52.87073589900004L42.86213822937012,53.67297781559134L42.98153137207031,54.21101673381612L43.32976137161255,54.8415577487591L43.67799137115478,55.2745153417341L43.68794079971314,55.5054807081697L43.70783965682983,55.65099711814091L44.14561451339722,55.788622487571246L44.314754798889155,55.79979375470235L44.33465365600586,55.73505077015204L44.38440079879761,55.74144820498037L44.63313651275635,55.97023863703839L44.643085941314695,56.08205476675472L44.7425802268982,56.2720392747992L44.76247908401489,56.43771935924734L44.812226226806644,56.52119224543566L44.951518226623534,52.50893476086033L45.10075965499878,54.84448961177294L45.25000108337402,58.04821473478897L45.30969765472412,60.77864290397528L46.62302222442627,62.48389227127335L47.1702407951355,63.684645450798186L47.30953279495239,64.39073455414022L47.65776279449463,64.71825203859487L48.72235165023804,64.53602224723696L49.428761077880864,64.4070507662264L49.86653593444824,58.079923009658756L50.13517050552368,57.71468760064404L50.16501879119873,58.665178547669754L50.742085647583,61.115179998700995L51.35895021820068,63.17438233533919L51.70718021774292,64.00752320390413L52.04546078872681,64.94368541706272L52.184752788543705,65.95359418005434L52.2046516456604,66.64371555338438L52.21460107421875,67.13504297417089L52.791667930603026,67.90442315411102L53.18964507293701,68.53647211308771L53.49807735824585,68.9969601185598L53.816459072113034,69.24805598171123L54.035346500396734,69.47503042649242L54.22438564300537,69.65694935496654L54.37362707138061,69.89971736658839L54.53281792831421,69.89494353441664L55.726749355316166,73.0916439979995L55.90583906936646,74.96317256532242L55.92573792648316,76.16526404449665L56.28391735458374,76.72400689561682L56.42320935440063,77.14946742044377L56.98037735366822,77.78336648214663L57.02017506790161,78.00031106265708L57.12961878204346,78.24664440257745L57.64698906707764,78.38635798311847L57.85592706680298,78.62797586371649L57.90567420959472,78.82141289466527L57.92557306671143,78.8973433639731L58.025067352294926,78.9110757187924L58.35339849472046,78.58413862745552L58.99016192245483,78.1549667089137L59.26874592208862,78.12551584696935L59.54732992172241,78.01526675169856L59.9254082069397,78.75162168507114L60.03485192108154,77.19308960836501L60.06470020675659,76.29482157290623L60.63181763458252,77.82637431708879L60.68156477737427,79.05515754489554L60.791008491516116,80.12973006741552L61.51731677627564,80.85193974111915L61.63670991897583,81.27541348167622L61.656608776092526,81.55544166778814L61.71630534744263,81.76952455158178L61.965041061401365,82.36136865600139L62.01478820419312,82.56116146176534L62.04463648986817,82.62341093084332L62.323220489501956,83.04680374957204L62.353068775177,83.26477702219208L62.731147060394285,83.37494791936835L62.86048963165283,83.64013162008574L62.880388488769526,83.71865446715388L63.686292201995855,83.68025738209376L64.01462334442138,83.50325843519283L64.60163962936402,83.6108190729946L64.77077991485596,80.7573084494213L64.9797179145813,88.0137404020862L65.48713877105713,90.05576007441611L65.95476191329956,91.3469874952942L66.31294134140015,92.36035179526797L66.35273905563355,92.88215437060724L66.43233448410034,93.17348406368916L66.80046334075928,93.2642232992272L67.1685921974182,92.96714510450391L67.24818762588501,92.71034809152364L67.54667048263549,92.48512711859506L67.6660636253357,92.30908705309808L67.6859624824524,92.19047145370708L68.06404076766968,92.33012633130866L68.18343391036987,92.2230890681828L68.60130990982056,91.89629563178458L69.27787105178832,91.88783974207033L69.36741590881347,91.91697940600129L69.39726419448853,91.9212731403332L70.1534207649231,93.61020559648001L70.1733196220398,94.73199523214913L70.71058876419067,96.4466870637918L70.98917276382447,97.73158790882917L71.64583504867554,98.21456189326322L72.03386276245116,98.35624406600175L72.92931133270264,97.99057369484441L73.08850218963623,97.85438641074218L73.22779418945312,97.62995493561813L73.83470933151244,97.50256756306852L74.05359675979615,97.475183894461L74.77990504455566,103.68799388845753L74.79980390167236,108.4809381864839L75.11818561553955,111.13557530081258L75.49626390075684,110.27719442750471L76.22257218551637,107.81672287586774L76.26236989974976,106.52051435562942L76.411611328125,105.511341492279L76.81953789901733,104.70906813792911L76.84938618469238,104.05908548107455L77.37670589828491,104.07464987142774L77.69508761215211,103.89347174321686L77.86422789764406,104.01217462957989L77.89407618331909,104.07539874237796L78.23235675430297,103.98335753556958L78.25225561141968,103.91188944352771L78.32190161132813,103.94681951848465L78.68008103942871,103.907299160976L78.88901903915406,103.93901133432159L79.12780532455444,104.03819504920325L79.17755246734619,104.03359634317479L79.23724903869629,104.06422757074924L79.50588360977174,104.08675921854191L79.70487218093872,104.07638721401908L79.75461932373048,106.06361364822705L80.38143332290649,107.21626961712934L80.80925875091553,108.26589769187338L80.90875303649902,109.05571963934707L81.4062244644165,109.47391547707144L81.59526360702515,109.38335789341811L81.7246061782837,109.41670723222417L81.7843027496338,109.51059817136743L81.91364532089233,109.3054155555059L82.48076274871826,109.34028638651463L82.7095996055603,109.24548631546311L82.75934674835206,109.18679100659486L82.99813303375244,109.20249008031081L83.21702046203613,109.40384585127974L83.34636303329467,109.41176934310272L83.58514931869507,109.31637820356055L84.54029446029664,109.31385747255429L84.58009217453002,109.34593660096981L84.77908074569702,109.61271717760447L85.3163498878479,112.55234469324093L85.4158441734314,114.00380138162157L85.60488331604003,114.8122276241917L86.14215245819092,114.79993568127057L86.23169731521607,114.67852914713976L86.3809387435913,114.76702321675256L86.53018017196655,114.73205835085847L86.56002845764161,114.81136701417367L86.6794216003418,114.86468923704095L86.94805617141724,114.79728825561205L86.98785388565064,114.7161804792506L87.09729759979248,114.86789508709711L88.02259445571899,114.36992872540107L88.10218988418579,113.98498644756272L88.25143131256104,113.82676754883427L88.89814416885376,113.93056346038989L89.21652588272094,114.02593500856094L89.47521102523804,114.0785596983113L89.69409845352172,109.08072130848068L90.6094458808899,111.47406029297726L90.68904130935668,112.79960669205363L91.09696788024903,114.04395173585377L91.70388302230835,114.83275651944382L92.01231530761719,115.34302250080299L92.53963502120972,116.04336650008281L92.64907873535157,116.45751722372083L92.82816844940186,116.62082596322986L92.92766273498535,116.75180465025909L92.9376121635437,116.84459534132358L93.12665130615235,116.91838323992766L93.35548816299439,117.06260009789831L93.54452730560303,117.19977744664934L93.93255501937867,117.30630394772562L93.96240330505371,117.38220713527248L94.03204930496216,117.42492036674298L94.13154359054566,117.47148132901972L94.1613918762207,117.53598833836L94.31063330459594,117.67459879031131L94.63896444702148,117.79009900160456L94.82800358963013,122.29452159084272L95.61400844573974,122.11080779884011L95.96223844528198,121.32073881071095L96.13137873077393,120.85635881324626L96.28062015914917,120.59192123414508L96.39006387329101,120.38458604447894L96.44976044464111,120.34921002717783L96.97708015823363,120.48739744110874L97.11637215805054,120.6277258463914L97.31536072921753,120.7134430117914L97.39495615768432,120.80489927859122L97.49445044326782,120.8877751528157L97.84268044281005,120.96690015471367L98.50929215621947,121.07393025385336L98.82767387008667,121.203308535576L99.4146901550293,121.44067501565445L99.76292015457153,125.45581784905717L99.87236386871338,126.43575227612476L99.99175701141357,127.33205483900758L100.16089729690552,127.11319423060708L101.29513215255737,126.26922001215138L101.33492986679077,125.6379438580022L101.64336215209961,125.53315146671036L101.7030587234497,125.28294969787058L102.28012557983399,125.46902116750931L102.38956929397584,125.5100214618276L102.75769815063477,125.23014533469899L102.80744529342651,125.01535836461292L102.82734415054321,124.89301722317487L102.88704072189331,124.85382834796545L103.11587757873535,124.90156095778796L103.1656247215271,124.9287248036468L103.25516957855226,124.93509922041568L104.1506181488037,125.17114474226898L104.18046643447876,125.29431249547825L104.45905043411254,125.38148809798119L104.55854471969604,125.50149897229483L105.13561157608032,127.07508066893908L105.39429671859742,127.86132503132208L105.48384157562256,128.20178349759667L105.8121727180481,127.99023854405252L105.82212214660645,127.92722722673736L105.91166700363159,127.89352502755975L106.36934071731568,127.84072163801338L106.41908786010742,127.85159910889604L107.47372728729248,128.11483296821766L107.65281700134278,128.33123399828145L107.68266528701781,128.44131563921832L107.89160328674316,128.35832604190733L108.23983328628539,128.22362614364988L108.30947928619385,128.15925721821463L108.4786195716858,128.11255727522388L108.49851842880248,128.08954039213103L108.52836671447754,128.06968895176172L108.73730471420289,128.09378565638607L108.80695071411132,128.14219438158662L109.03578757095337,128.04944831165096L109.20492785644532,127.96357191602362L109.3840175704956,127.91535534817632L109.4437141418457,127.88067140527963L109.5432084274292,127.8583474470459L110.00088214111328,128.98504866274894L110.08047756958007,129.99235809237868L110.28941556930542,130.2122586075661L110.99582499694824,130.46018398166893L111.70223442459107,130.8094712755852L111.7718804244995,130.89030601514054L112.04051499557495,130.95204524293698L112.50813813781738,131.19570917367264L112.59768299484253,131.2165666632932L112.91606470870971,131.14856430483763L113.12500270843506,131.00223192997527L113.55282813644409,130.89284520224982L113.58267642211914,130.8319367756724L113.78166499328613,130.80725755356227L113.85131099319459,130.7718682966268L114.10999613571167,130.69712356687205L114.80645613479614,130.9126459810123L114.89600099182128,131.0560675742173L114.96564699172974,131.4749437179949L115.09498956298829,131.7064843082214L115.31387699127197,132.66628903219137L115.69195527648925,133.03525110472088L115.93074156188965,133.2400297627159L115.99043813323975,133.4805275156393L116.2192749900818,133.40789793419074L116.39836470413208,133.43618644506307L117.09482470321655,133.63749134933303L117.53259955978393,133.8016369538695L117.81118355941771,133.8535934273566L117.84103184509277,133.82789332250206L118.23900898742676,133.76006560915457L118.47779527282714,133.62776855729493L119.12450812911987,133.52061544680097L119.90056355667114,133.13454347991828L119.95031069946289,132.6482053872209L119.98015898513793,132.52000764557005L120.23884412765503,133.61192195349088L120.46768098449708,134.28369654865168L120.6766189842224,134.7403456143699L120.835809841156,135.06094429985157L121.0745961265564,135.46402327262211L121.24373641204834,135.73429981507624L121.95014583969116,135.67943433753837L122.14913441085815,135.61858606989932L122.2187804107666,135.63221110613972L123.3430658378601,135.43974305294006L123.37291412353515,135.33756851432403L123.5818521232605,135.19917635557346L123.63159926605225,135.13083035142927L124.16886840820312,135.18422181707203L124.26836269378661,135.26327078605777L124.30816040802003,135.30775525711456L124.59669383621215,130.42844341532114L124.91507555007935,132.56430510290252L124.92502497863771,133.9265283299846L125.35285040664672,135.59206826970103L125.44239526367187,136.4810762841781L125.61153554916382,136.92206641110027L125.66128269195556,137.22177935921138L125.75082754898071,137.38819962388698L125.9100184059143,137.4632629509772L126.07915869140625,137.20137207517092L126.47713583374023,137.04172229589358L126.84526469039918,137.12548641921808L126.93480954742431,137.1827695817672L126.94475897598267,137.2175874190948L127.16364640426636,137.28498680962826L127.23329240417482,137.2117385396137L127.5118764038086,137.18447827346606L127.61137068939209,137.12964761117445L127.66111783218383,137.10188289119444L127.77056154632568,137.15229618775564L127.86010640335083,137.19179484079464L127.99939840316773,137.34157733227045L128.377476688385,137.44398065284864L128.40732497406006,137.52173522833985L128.74560554504393,137.6369919779366L128.78540325927736,137.68081065718792L129.0142401161194,137.68157125516547L129.07393668746948,137.67691156684063L129.0938355445862,137.6588524990624L129.49181268692016,137.555403219724L129.55150925827027,137.49415378679515L129.68085182952882,139.7187420054213L129.73059897232056,140.88830636197272L130.36736240005493,140.46636122037154L130.55640154266356,140.69157751548164L130.6459463996887,140.93400193367017L130.825036113739,141.09273806489531L131.09367068481447,141.05888688927013L131.3225075416565,140.96972274372874L131.3424063987732,140.9230537058918L131.35235582733154,140.85907866896392L131.93937211227416,140.62972894458628L132.05876525497436,140.4606568894152L132.43684354019163,140.31791243157232L132.94426439666748,139.92717369916795L133.52133125305176,139.65369048210016L133.87951068115234,139.43524312265325L134.0486509666443,139.3513553048192L134.24763953781127,139.26709737765805L134.5560718231201,139.43632630753368L134.64561668014525,140.92163654736703L134.8147569656372,141.62964926845035L134.894352394104,141.87005131735208L134.98389725112915,141.7594598567239L135.292329536438,141.71777758278503L135.68035725021363,141.79577870062943L135.79975039291384,141.68327735251384L135.919143535614,141.59138406682362L136.02858724975584,141.56111724286103L136.16787924957274,141.55436851278694L136.18777810668945,141.59578059343886L136.54595753479003,141.69218459214832L136.90413696289062,141.72793820494354L137.17277153396606,141.7710057532878L137.6204958190918,141.5817659640024L138.0383718185425,141.4621755561298L138.63533753204345,141.29344756889793L138.764680103302,141.16050499691124L138.78457896041868,141.09565467364487L138.99351696014404,141.04674223212265L139.04326410293578,141.01845323719877L139.1825561027527,140.98746245883547L139.2820503883362,140.9463195120665L139.33179753112793,140.90053682427057L139.4014435310364,140.84424430980079L139.59048267364503,143.9174791459189L139.7098758163452,145.0939845245819L140.67497038650515,144.12359516330034L140.82421181488036,143.46989817141883L140.93365552902222,143.0267695940142L140.97345324325562,142.74301338108063L141.1326441001892,142.58500355879394L141.46097524261475,142.62585616798958L141.5505200996399,142.73062862013592L142.18728352737426,142.60050382442958L142.2171318130493,142.48950863671024L142.37632266998293,142.3696543551637L143.2419229545593,142.1760562628814L143.33146781158447,142.0769661339307L143.6399000968933,141.9987919602444L143.85878752517698,141.97194484200824L144.07767495346067,141.94947922139508L144.7243878097534,142.42065438627185L144.8039832382202,142.24233605771195L145.23180866622926,141.82363315787228L145.52034209442138,141.820254026977L145.97801580810548,141.56265469250636L146.25659980773926,141.66494677575213L146.84361609268188,141.98020202738093L147.0028069496155,142.26988697328645L147.31123923492433,142.441949277886L147.59977266311645,142.6115372535143L147.84850837707518,142.72834173027144L147.89825551986695,142.78654944086088L148.0275980911255,142.78414096223128L148.21663723373413,142.73427266871235L148.64446266174318,142.8393369795245L148.84345123291016,142.92969271098983L149.42051808929443,142.9465736978592L149.58965837478635,144.1672341284736L149.85829294586182,144.56815428324938L149.86824237442016,144.7879111301219L149.94783780288697,144.8261601858516L150.06723094558717,144.9762533478517L150.18662408828737,145.0784911180459L150.33586551666258,144.84796117029646L150.375663230896,144.78384906531937L150.54480351638793,144.51897108844753L150.90298294448854,144.48653766931392L151.05222437286378,144.46137715946975L151.15171865844727,144.408917058827L151.18156694412232,144.38320283631126L151.30096008682253,144.3720780509206L151.31090951538087,144.36239036011102L151.35070722961424,144.3938925673515L151.62929122924805,144.39731319674797L152.3655489425659,144.36554742557368L152.72372837066652,144.3092789228445L153.25104808425905,144.32211661968228L153.29084579849243,144.34262012962552L153.4898343696594,144.34106026186754L153.97735636901857,144.30656738178723L154.2658897972107,144.33460502247686L154.6837657966614,144.51768118123903L155.1911866531372,144.58298886228184L155.34042808151244,144.69270309396273L155.42002350997927,144.77048627119902L155.47972008132933,144.80505527325653L156.0070397949219,144.94259338550046L156.0368880805969,145.05570414191942L156.16623065185547,145.06006435532305L156.4348652229309,145.05872934091843L156.68360093688963,145.05417699970965L156.75324693679812,145.04541081420544L156.97213436508179,145.12256549602495L157.31041493606568,145.32769671277754L157.65864493560792,145.434752779904L157.88748179244993,145.5257420079766L158.04667264938354,145.5774742150892L158.57399236297607,145.62917557876256L158.77298093414308,145.62570307358982L158.80282921981814,145.61551421084445L158.89237407684328,145.58913520868572L158.90232350540163,145.58154767956634L158.9620200767517,145.55350640055173L159.1610086479187,145.52060412044668L159.1809075050354,145.5117412903383L159.99676064682006,146.2788102346318L160.80266436004638,146.3971403286442L161.39963007354737,146.48587183845942L161.4593266448975,146.5289818199336L161.6881635017395,146.54763375795835L162.05629235839845,146.5527934048616L162.0662417869568,146.548210878009L162.12593835830688,146.57700389817828L162.21548321533203,146.61025470614192L162.38462350082395,146.66519216223762L162.50401664352415,146.73561115286353L162.56371321487427,146.78381374741429L163.1507294998169,146.76154610219876L163.64820092773436,146.74810846420039L164.1158240699768,146.6480752215946L164.4740034980774,143.59167691974184L164.7127897834778,144.32203013464203L164.7426380691528,144.80709943955023L165.48884521102906,145.46086778322928L165.54854178237915,145.79107280305846L165.84702463912964,146.07548756452306L165.9365694961548,146.33837545330337L165.97636721038816,146.4896992519962L166.03606378173828,146.64958595966698L166.6230800666809,146.74598616624507L166.95141120910645,146.822131095383L166.9613606376648,146.87814678716154L167.0409560661316,146.88198975377713L167.080753780365,146.86935811272298L167.24989406585692,146.911655200395L167.309590637207,146.97724160015522L167.61802292251585,146.94353093287893L167.88665749359131,146.98012954844995L168.07569663619995,147.05458582559228L168.4040277786255,147.09936733249967L168.41397720718385,147.1243106178909L168.65276349258423,147.17895060398695L169.41886949157714,147.17564409916835L170.0456834907532,147.42082501882732L170.46355949020386,147.62206050019523L170.50335720443724,147.76831999209335L170.94113206100465,147.81141948482028L171.1301712036133,147.82190687910412L171.49830006027224,147.84056663313314L171.7967829170227,147.70611544786328L171.86642891693114,147.58784195367636L172.373849773407,147.64326544245208L172.5429900588989,147.65265857929853L172.60268663024902,147.66399165490307L173.34889377212522,147.76803361486895L173.40859034347534,147.84505013593463L173.68717434310912,147.92677462245265L173.8563146286011,147.96296402032718L173.87621348571776,147.9855160769831L174.19459519958497,147.96385595896402L174.5030274848938,150.38478746891823L175.0900437698364,150.107066266674L175.19948748397826,149.63042851526555L176.51281205368042,149.1198347454091L176.7515983390808,148.88007590033413L176.84114319610595,148.76332029810283L176.90083976745606,148.70118554599432L177.35851348114014,148.65956960388402L177.3883617668152,148.66651215788085L177.57740090942383,148.66801355853494L177.76644005203246,148.63202335698102L178.89072547912596,148.58518789372118L178.9703209075928,148.55911213945885L179.03001747894288,148.55183192998297L179.6568314781189,148.93896775868106L180.04485919189452,149.30215541757715L180.25379719161987,149.41933379621193L180.8408134765625,149.3140059792488L180.97015604782104,149.21377981674965L181.06965033340452,149.12308365506314L181.10944804763795,149.06023998843736L181.57707118988037,149.08617845928455L182.29343004608154,149.24323305633828L182.51231747436523,149.29066067647972L182.68145775985718,149.30348702269296L183.13913147354125,149.2547417628825L183.47741204452515,149.19482183137296L183.5669569015503,149.17627683914168L184.12412490081786,149.2336330480136L184.66139404296874,149.11767677856508L184.92007918548586,149.30695279963214L184.96982632827758,149.39095112072818L185.6762357559204,149.58665825784385L185.7160334701538,149.73579746138932L186.03441518402101,149.96847741178345L186.52193718338012,150.09356847590897L187.0393074684143,150.18233425123736L187.1388017539978,150.24714677598016L187.14875118255617,150.2648211418142L187.3974868965149,150.25404088028125L187.48703175354004,150.2506514932568L187.62632375335693,150.2406293836509L188.04419975280763,150.27774501536084L188.29293546676638,150.3044722442437L189.03914260864258,150.31059383245554L189.705754322052,149.61193701328952L190.01418660736084,149.6203171304723L190.3524671783447,149.9575389222147L190.58130403518675,150.07669819599636L190.95938232040407,150.21071466375187L191.0091294631958,150.24722905608192L191.05887660598756,150.26952751663953L191.4270054626465,150.36747645150962L191.50660089111327,150.4435411206433L191.64589289093018,150.5134130734185L191.75533660507202,150.49493946428416L191.9344263191223,150.46478977952376L191.95432517623902,150.4202878449143L192.18316203308106,150.4200562695669L192.19311146163943,150.39654740398643L192.20306089019775,150.38479474803856L192.2329091758728,150.39596111418987L192.42194831848144,150.45326245970665L192.77017831802368,150.50754198043995L192.93931860351563,150.56996102788213L193.07861060333252,150.6067607888277L193.28754860305787,150.64949909344676L193.38704288864136,150.6579039031849L193.46663831710816,150.66149490252462L193.56613260269165,150.6501747416703L194.05365460205078,150.64297551620126L194.1332500305176,150.65064947106885L194.45163174438474,150.98730260531252L194.59092374420166,150.83715993421416L194.65062031555178,151.05834123284134L194.78991231536864,150.68749287237318L194.87945717239378,150.55220217500857L194.94910317230224,150.55536123873043L194.95905260086062,150.6013908270889L194.998850315094,150.61589360802594L195.24758602905274,150.7934000182708L195.34708031463623,150.93988902113585L195.54606888580324,151.14247100902722L195.6853608856201,151.26695956182226L196.0435403137207,151.40907971312762L196.1231357421875,151.41279345900358L196.23257945632935,151.4357049675726L196.72010145568848,151.43641688988566L196.73005088424682,151.4417922762039L196.7797980270386,151.38564785445845L197.048432598114,151.3183448214002L197.42651088333128,151.22445672327277L198.5308974533081,151.12542625589762L198.62044231033326,151.06927153685893L198.77963316726684,151.05097092247877L198.8094814529419,151.05327921687083L198.89902630996704,151.02178175567158L199.17761030960082,151.02216656488295L199.51589088058472,148.71937668429482L199.52584030914306,147.2083565478766L199.64523345184327,147.30515638575866L200.0332611656189,147.99025079498858L200.28199687957766,148.49714892704367L200.45113716506958,148.9397123044492L200.88891202163697,149.20561664900725L201.12769830703735,149.49823981906334L201.34658573532104,149.72425135058285L201.62516973495482,149.80475187972203L202.1624388771057,149.88130244126745L202.19228716278076,149.95850694238078L202.6002137336731,150.03208149068018L202.6798091621399,150.07478380127193L203.4857128753662,150.18753861999267L203.49566230392455,150.25650137599922L204.36126258850098,150.19729826166494L204.44085801696778,151.12333956980532L204.8885823020935,151.7015791112474L205.4855480155945,151.79620572642378L206.0924631576538,151.82948313938462L206.16210915756224,151.80410482422855L206.4506425857544,151.76469071846932L206.81877144241335,151.74431985532973L206.98791172790527,151.66250407834195L207.40578772735597,151.51792638427762L207.88336029815673,151.4694884151815L208.28133744049072,151.47718967233092L208.53007315444947,151.41624079001815L208.7191122970581,151.35750562333098L208.76885943984988,151.2966496801682L208.99769629669188,151.30532514303133L209.04744343948366,151.30541470012457L209.09719058227537,151.28817279968217L209.21658372497558,151.24316456293863L209.42552172470093,151.03592327272892L209.89314486694337,151.262976822664L210.10208286666872,151.60385834627368L210.47021172332762,151.6474603171455L210.62940258026126,151.6948904779116L211.2064694366455,151.75542099862037L211.6442442932129,151.8173926796306L211.6840420074463,151.85532399582954L211.93277772140505,151.85955988721992L212.1914628639221,151.80243433910368L213.02721486282348,151.71378133885025L213.07696200561526,151.68426407119242L213.57443343353273,151.66645870295832L213.7734220046997,151.66848267216596L213.92266343307494,151.69805014107348L213.95251171875,151.72978025245462L214.1713991470337,151.7573255840938L214.23109571838378,151.75279830661805L214.45993257522582,152.30855708670447L214.70866828918457,152.50082512584643L214.72856714630126,152.64302479124532L214.8579097175598,152.76098836651707L215.2558868598938,152.53717492029895L215.3155834312439,152.32820758313215L215.45487543106077,152.18841344452886L215.56431914520263,152.10834379667756L215.65386400222778,152.1378217119827L216.11153771591188,152.0345108453585L216.1811837158203,151.99183340376683L216.2209814300537,151.9490550425854L216.2806780014038,151.8707978693578L216.86769428634645,151.89069988623973L217.1363288574219,151.96045602008115L217.36516571426392,151.9916113831081L218.06162571334838,151.99829739833245L218.1611199989319,152.0332997811686L218.2805131416321,152.06765713015753L218.60884428405762,152.0720278451073L218.68843971252443,152.08838948878935L218.77798456954957,152.07558094437852L218.847630569458,152.07707140088564L219.245607711792,152.07998075090805L219.37495028305054,152.84057653682922L219.42469742584228,152.92261827456136L219.48439399719237,152.59938790478662L219.51424228286743,152.22197099500949L220.270398853302,152.06788173628567L220.28034828186034,151.94740125391505L220.30024713897706,151.93723718659822L220.71812313842773,151.9711428391568L220.7479714241028,152.01961534817582L221.05640370941163,152.04792312110882L221.32503828048706,152.16069540107478L221.35488656616212,152.2434388647803L221.40463370895384,152.2989512566282L221.8125602798462,152.3133949412583L221.96180170822143,152.34810075442692L222.11104313659666,152.35725985080626L222.20058799362184,152.36549714422043L222.22048685073852,152.35627260793606L222.40952599334716,152.37693877300225L222.60851456451417,152.40887413221773L222.70800885009766,152.43260942688104L222.84730084991455,152.4209187419105L223.25522742080688,152.4334749251844L223.2751262779236,152.44494116785177L223.49401370620728,152.4615975586819L223.72285056304932,152.4602325932405L224.13077713394165,152.4716594783696L224.2601197052002,152.46656554203355L224.27006913375854,152.4601476728255L224.45910827636717,152.32995866550954L224.46905770492552,152.1141795181158L224.48895656204223,151.99657492513523L224.538703704834,151.98723332914804L224.64814741897584,151.9203425673814L225.37445570373538,152.1692788110419L225.74258456039428,152.34134215926713L225.75253398895265,152.44237736221245L225.92167427444457,152.56904544418617L225.96147198867797,152.6763860813899L226.3296008453369,152.7281515092913L226.63803313064574,152.7057857829363L226.6479825592041,152.69864860484608L226.67783084487917,152.70517268237862L226.6877802734375,152.70509941993717L227.02606084442138,152.7003893140795L227.07580798721312,152.7007024205059L227.16535284423827,152.71457301686902L227.40413912963868,152.7113916146379L227.73247027206423,152.6962065167749L227.97125655746459,152.72749982374089L227.98120598602296,152.75053156248947L228.33938541412354,152.72588491827742L228.7174636993408,152.66513053807734L229.1154408416748,152.71211714493526L229.17513741302488,152.7388327360419L229.1950362701416,152.7625371408331L229.20498569869994,152.77820122263546L229.51341798400878,152.83467220244228L229.60296284103393,152.88268970695933L229.64276055526733,152.98861833500345L230.27952398300172,153.21741795676516L230.92623683929443,153.24188905426038L231.15507369613647,153.2697741832801L231.31426455307007,153.2835293341176L231.99082569503784,153.37180366998678L232.0206739807129,153.43187752012665L232.07042112350464,153.42139616476354L232.73703283691407,153.36981188810984L232.91612255096436,153.31058626506396L233.6623296928406,153.26255820287213L234.05035740661623,153.27591790122932L234.06030683517457,153.28314721370305L234.6871208343506,153.52030608208185L234.8164634056091,153.60789691850536L234.92590711975097,153.57455537271312L235.3139348335266,153.76120218202198L235.4532268333435,153.82385844868725L235.62236711883543,153.80983335019937L235.75170969009397,153.7472420620374L236.04024311828613,153.6824354415088L236.05019254684447,153.63934174925205L236.4581191177368,153.6139223731472L236.6969054031372,153.58988335705658L236.7566019744873,153.5822796022881L236.95559054565427,153.5316895762483L237.0152871170044,153.51712902986276L237.22422511672974,153.5044660460896L237.28392168807983,153.49799104370166L237.75154483032227,153.55005640024706L237.8808874015808,153.59604204045883L238.46790368652344,153.57214287538503L238.78628540039062,153.53403644810095L238.85593140029908,153.49359356654762L239.69168339920046,153.51141556889644L239.89067197036744,153.64847252206206L240.98510911178587,153.87654407341424L241.23384482574463,154.03717286869585L241.2537436828613,154.1235273296382L241.36318739700317,154.2204108467669L241.6318219680786,154.27457806107492L241.70146796798707,154.31621773278596L241.8109116821289,154.33397311953655L241.86065882492068,154.33542660841502L241.9303048248291,154.33249480481203L241.94025425338745,154.31301369627815L242.07954625320434,154.2874826466379L242.35813025283815,154.2880440050764L243.04464082336426,154.24167558698912L243.07448910903932,154.2055513255346L243.4127696800232,154.20517545719767L243.49236510849,154.1841778707606L243.82069625091552,154.09303216113267L243.84059510803223,154.0409892778959L243.89034225082398,153.98713148759913L244.20872396469116,153.98920859942373L244.39776310729982,153.47063868755396L245.114121963501,153.60256600947855L245.13402082061768,153.6703257302328L245.27331282043457,153.86489981527487L245.61159339141847,153.88878686852567L246.33790167617798,153.89025617615624L246.4075476760864,153.92068219820746L246.5269408187866,153.97855730301498L247.01446281814574,154.0141713892744L247.03436167526246,154.02518009049462L247.1438053894043,154.03117053670786L247.15375481796266,154.0310448145962L247.20350196075438,154.0326912723608L247.84026538848877,153.9690990917059L248.0492033882141,153.9621314285147L248.07905167388915,153.94598443884982L248.08900110244753,153.93909390986883L249.54161767196658,153.36109941157346L249.58141538619995,152.9266622463337L249.5913648147583,152.68812170878036L249.76050510025024,152.55432739762685L249.90974652862548,152.41107152007461L250.009240814209,152.36609077262975L250.11868452835083,152.42325166778582L250.16843167114257,152.5060132015225L250.1783810997009,152.57472976428306L250.21817881393432,152.65813068733726L250.25797652816775,152.75842767051859L250.31767309951783,152.78251438449098L250.5564593849182,152.96024373416174L250.65595367050173,153.03935981829102L250.9146388130188,153.14412103424735L250.9345376701355,153.22343073626078L251.02408252716063,153.31109868074677L251.36236309814453,153.4807338407897L251.5911999549866,153.5703957492741L251.92948052597046,153.5898376748762L252.0986208114624,153.63427295663564L252.3374070968628,153.7192221286802L252.52644623947143,153.73449324599744L252.66573823928832,153.76987639242856L252.99406938171387,153.8072046881345L254.11835480880737,153.88392514014402L254.6058768081665,154.03577045567638L255.21279195022584,154.05078925881884L255.4117805213928,154.08148285115175L255.52122423553467,154.15809167541423L255.72021280670165,154.12319469477993L256.3171785202026,154.0904595612638L256.4465210914612,154.05408146525647L256.8146499481201,154.0966688077052L257.0136385192871,154.11819432580552L257.12308223342893,154.11985955680848L257.978733089447,154.16726258130578L258.0782273750305,154.18980967803378L258.94382765960694,154.2202920656459L259.4810968017578,154.48393268695963L259.84922565841674,154.73829254219322L259.86912451553343,154.92930819247448L260.15765794372555,154.95213204081426L260.5456856575012,154.9226119128206L261.023258228302,154.89440687890178L261.5008307991028,154.8047080067699L261.5207296562195,154.75073556121288L261.6003250846863,154.68185675385308L261.89880794143676,154.60933137666L262.09779651260374,154.542375382351L262.1276447982788,154.51892802760102L262.2669367980957,154.51299860252632L262.83405422592165,154.49154718908767L263.78919936752317,154.53753732823031L264.23692365264895,154.70372045920197L264.2767213668823,154.40514819233053L264.87368708038326,154.76607853351538L265.3313607940674,154.88718213848819L265.62984365081786,154.96228740169738L265.8487310791016,154.98384351482284L265.9283265075684,154.99829828438874L266.117365650177,154.9286900750502L266.5551405067444,154.84983005329244L266.92326936340334,154.8595930628531L267.142156791687,154.8500250234129L267.44063964843747,154.88106031836503L267.5998305053711,154.91850769984052L267.6595270767212,154.9527192035504L267.74907193374634,154.96523085647297L267.98785821914674,154.99493535473914L268.06745364761355,154.9857778430296L268.27639164733887,154.95313563764043L268.39578479003904,154.92561505435322L268.4156836471558,154.90457433338955L268.5151779327393,154.85671316714283L268.7241159324646,154.83669080910346L269.1121436462402,154.8441676727997L269.13204250335696,154.83944621216395" fill="none"></path></g></g></g></g><g opacity="0.2"><g><g><g><path style="fill: none;" stroke="rgb(255, 112, 67)" stroke-width="2px" d="M24.624835681915286,-40.30396448351985L25.241700252532958,20.25006538618814L25.510334823608396,23.417182591568377L25.66952568054199,24.16067124018599L25.739171680450436,24.8924194258729L25.74912110900879,25.417214201034056L26.21674425125122,23.646180386328865L26.346086822509765,24.461796484074654L26.48537882232666,23.800686968011888L26.584873107910155,23.521932595091272L27.01269853591919,20.587770203679554L27.092293964385988,20.449470423439237L27.520119392395017,21.931132516655794L27.57981596374512,22.15430578809361L27.719107963562013,22.65060480116938L27.73900682067871,22.420640605678216L27.888248249053955,22.953101289338008L27.947944820404054,23.359185488258902L28.226528820037842,22.480923116121005L29.311016532897952,23.625285235395495L29.569701675415036,24.377393133773126L29.57965110397339,24.370536912373097L29.639347675323485,24.591450895616276L29.907982246398927,56.57844009630733L29.997527103424073,44.295552106853904L30.485049102783204,35.26938234187688L30.514897388458255,35.03762899908705L30.783531959533693,31.499923232434014L30.892975673675537,29.306415584794536L31.460093101501467,31.493733043969968L31.649132244110106,32.44656498600139L32.45503595733643,30.373635418716873L33.002254528045654,31.087753320803756L33.032102813720705,31.53992438700209L33.1713948135376,31.443023124548546L33.211192527771,31.496070688980637L33.68876509857178,32.27246920031834L33.758411098480224,32.49289998319617L33.97729852676392,32.34087470068647L34.09669166946411,32.80240940639683L34.1961859550476,32.97414142813054L34.49466881179809,33.465752091715615L34.60411252593994,33.851332923783104L34.74340452575684,34.20521842377855L35.06178623962403,18.678188478816708L35.35031966781616,31.350366189628346L35.50951052474976,31.756215318101226L35.66870138168335,35.55522800664551L35.70849909591674,32.91630103845307L35.87763938140869,35.06459680326043L36.225869380950925,36.52076681233828L36.73329023742676,39.10423021427192L36.91237995147705,39.408032649373894L37.001924808502196,39.702667337003874L37.141216808319086,40.17246868680223L37.161115665435794,40.418012829208095L37.190963951110845,40.74596222310748L37.62873880767822,42.71871260113579L38.076463092803955,44.11243222786146L38.25555280685425,45.25113959691464L38.34509766387939,45.08657722384493L38.47444023513793,45.407605098997635L38.504288520812985,45.638692408851455L38.58388394927979,46.27350015367685L38.98186109161377,47.536141886703604L39.151001377105715,47.15342107842011L39.25049566268921,47.0869483795133L39.280343948364255,46.92473671092361L39.81761309051514,47.191855096668206L40.16584309005737,43.798090801007476L40.5737696609497,50.872718766153554L40.6533650894165,51.175842108850205L40.693162803649905,52.29587443675666L40.76280880355835,51.671775456784616L41.66820680236817,52.38450905512218L41.78759994506836,51.638552166800565L41.906993087768555,52.00310725324134L42.10598165893555,52.30205156575134L42.1557288017273,51.96946606023862L42.16567823028564,51.77538928647553L42.364666801452636,53.35306459823096L42.41441394424439,53.46495813147919L42.86213822937012,54.87634069047829L42.98153137207031,55.01807511115325L43.32976137161255,55.78736927117359L43.67799137115478,55.92395173119655L43.68794079971314,55.85192875782306L43.70783965682983,55.869271733097776L44.14561451339722,55.995060541716725L44.314754798889155,55.816550655398984L44.33465365600586,55.637936293326604L44.38440079879761,55.75104435722285L44.63313651275635,56.31342428512542L44.643085941314695,56.24977896132927L44.7425802268982,56.55701603686593L44.76247908401489,56.68623948591956L44.812226226806644,56.646401574718126L44.951518226623534,46.490548533997355L45.10075965499878,58.34782188814184L45.25000108337402,62.853802419313L45.30969765472412,64.87428515775473L46.62302222442627,65.04176632222043L47.1702407951355,65.4857752200854L47.30953279495239,65.44986820915332L47.65776279449463,65.2095282652768L48.72235165023804,64.26267756020006L49.428761077880864,64.21359354471062L49.86653593444824,48.58923137480724L50.13517050552368,57.166834487121946L50.16501879119873,60.09091496820831L50.742085647583,64.79018217524788L51.35895021820068,66.26318584029643L51.70718021774292,65.25723450675157L52.04546078872681,66.34792873680063L52.184752788543705,67.46845732454172L52.2046516456604,67.67889761337952L52.21460107421875,67.8720341053506L52.791667930603026,69.05849342402118L53.18964507293701,69.48454555155278L53.49807735824585,69.68769212676789L53.816459072113034,69.62469977643843L54.035346500396734,69.81549209366418L54.22438564300537,69.92982774767775L54.37362707138061,70.26386938402115L54.53281792831421,69.88778278615901L55.726749355316166,77.88669469337376L55.90583906936646,77.77046541630685L55.92573792648316,77.96840126325795L56.28391735458374,77.56212117229707L56.42320935440063,77.78765820768422L56.98037735366822,78.73421507470096L57.02017506790161,78.32572793342271L57.12961878204346,78.61614441245801L57.64698906707764,78.59592835392998L57.85592706680298,78.99040268461351L57.90567420959472,79.11156844108844L57.92557306671143,79.0112390679349L58.025067352294926,78.93167425102138L58.35339849472046,78.0937329904502L58.99016192245483,77.51120883110096L59.26874592208862,78.08133955405285L59.54732992172241,77.84989310879234L59.9254082069397,79.85615408513006L60.03485192108154,74.85529149330583L60.06470020675659,74.94741951971803L60.63181763458252,80.12370343336265L60.68156477737427,80.89833238660567L60.791008491516116,81.7415888511955L61.51731677627564,81.93525425167459L61.63670991897583,81.91062409251188L61.656608776092526,81.975483946956L61.71630534744263,82.09064887727227L61.965041061401365,83.24913481263079L62.01478820419312,82.86085067041127L62.04463648986817,82.7167851344603L62.323220489501956,83.68189297766507L62.353068775177,83.5917369311222L62.731147060394285,83.54020426513276L62.86048963165283,84.03790717116185L62.880388488769526,83.83643873775607L63.686292201995855,83.62266175450361L64.01462334442138,83.23776001484143L64.60163962936402,83.77216002969726L64.77077991485596,76.47704251406135L64.9797179145813,98.89838833108357L65.48713877105713,93.11878958291098L65.95476191329956,93.28382862661132L66.31294134140015,93.88039824522863L66.35273905563355,93.66485823361616L66.43233448410034,93.61047860331203L66.80046334075928,93.40033215253425L67.1685921974182,92.52152781241901L67.24818762588501,92.32515257205324L67.54667048263549,92.14729565920217L67.6660636253357,92.04502695485263L67.6859624824524,92.01254805462057L68.06404076766968,92.53960864771105L68.18343391036987,92.062533173494L68.60130990982056,91.40610547718724L69.27787105178832,91.87515590749892L69.36741590881347,91.96068890189778L69.39726419448853,91.92771374183104L70.1534207649231,96.14360428070023L70.1733196220398,96.41467968565283L70.71058876419067,99.01872481125582L70.98917276382447,99.65893917638522L71.64583504867554,98.93902286991433L72.03386276245116,98.56876732510952L72.92931133270264,97.4420681381084L73.08850218963623,97.65010548458885L73.22779418945312,97.29330772293207L73.83470933151244,97.3114865042441L74.05359675979615,97.4341083915497L74.77990504455566,113.00720887945232L74.79980390167236,115.67035463352346L75.11818561553955,115.11753097230559L75.49626390075684,108.98962311754289L76.22257218551637,104.1260155484123L76.26236989974976,104.57620157527194L76.411611328125,103.99758219725335L76.81953789901733,103.50565810640427L76.84938618469238,103.08411149579268L77.37670589828491,104.09799645695756L77.69508761215211,103.62170455090053L77.86422789764406,104.19022895912443L77.89407618331909,104.17023491157505L78.23235675430297,103.84529572535702L78.25225561141968,103.80468730546492L78.32190161132813,103.99921463092002L78.68008103942871,103.84801862471302L78.88901903915406,103.98657959433999L79.12780532455444,104.18697062152576L79.17755246734619,104.02669828413208L79.23724903869629,104.11017441211092L79.50588360977174,104.12055669023094L79.70487218093872,104.06082920723482L79.75461932373048,109.04445329953901L80.38143332290649,108.94525357048279L80.80925875091553,109.84033980398941L80.90875303649902,110.24045256055761L81.4062244644165,110.10120923365798L81.59526360702515,109.24752151793811L81.7246061782837,109.46673124043326L81.7843027496338,109.65143458008234L81.91364532089233,108.99764163171358L82.48076274871826,109.39259263302776L82.7095996055603,109.1032862088858L82.75934674835206,109.09874804329246L82.99813303375244,109.22603869088474L83.21702046203613,109.70587950773312L83.34636303329467,109.42365458083717L83.58514931869507,109.1732914942473L84.54029446029664,109.31007637604492L84.58009217453002,109.39405529359311L84.77908074569702,110.01288804255645L85.3163498878479,116.9617859666956L85.4158441734314,116.18098641419257L85.60488331604003,116.0248669880469L86.14215245819092,114.78149776688886L86.23169731521607,114.49641934594356L86.3809387435913,114.89976432117177L86.53018017196655,114.6796110520173L86.56002845764161,114.9303300091465L86.6794216003418,114.94467257134187L86.94805617141724,114.69618678346868L86.98785388565064,114.59451881470844L87.09729759979248,115.09546699886687L88.02259445571899,113.622979182857L88.10218988418579,113.4075730308052L88.25143131256104,113.58943920074158L88.89814416885376,114.08625732772333L89.21652588272094,114.16899233081752L89.47521102523804,114.15749673293683L89.69409845352172,101.58396372373474L90.6094458808899,115.06406876972213L90.68904130935668,114.7879262906682L91.09696788024903,115.91046930155397L91.70388302230835,116.01596369482887L92.01231530761719,116.10842147284174L92.53963502120972,117.09388249900255L92.64907873535157,117.07874330917785L92.82816844940186,116.8657890724934L92.92766273498535,116.9482726808029L92.9376121635437,116.98378137792032L93.12665130615235,117.02906508783374L93.35548816299439,117.27892538485429L93.54452730560303,117.40554346977589L93.93255501937867,117.46609369934004L93.96240330505371,117.49606191659277L94.03204930496216,117.48899021394875L94.13154359054566,117.54132277243487L94.1613918762207,117.6327488523704L94.31063330459594,117.88251446823827L94.63896444702148,117.96334931854446L94.82800358963013,129.05115547469995L95.61400844573974,121.83523711083623L95.96223844528198,120.13563532851718L96.13137873077393,120.15978881704925L96.28062015914917,120.19526486549333L96.39006387329101,120.07358325997971L96.44976044464111,120.2961460012262L96.97708015823363,120.69467856200507L97.11637215805054,120.83821845431538L97.31536072921753,120.84201875989139L97.39495615768432,120.94208367879095L97.49445044326782,121.01208896415243L97.84268044281005,121.08558765756058L98.50929215621947,121.23447540256292L98.82767387008667,121.39737595815993L99.4146901550293,121.79672473577213L99.76292015457153,131.47853209916124L99.87236386871338,127.90565391672612L99.99175701141357,128.6765086833318L100.16089729690552,126.78490331800634L101.29513215255737,125.0032586844678L101.33492986679077,124.69102962677844L101.64336215209961,125.37596287977262L101.7030587234497,124.90764704461091L102.28012557983399,125.74812837196743L102.38956929397584,125.57152190330504L102.75769815063477,124.81033114400604L102.80744529342651,124.6931779094838L102.82734415054321,124.70950551101782L102.88704072189331,124.79504503515133L103.11587757873535,124.97315987252173L103.1656247215271,124.96947057243506L103.25516957855226,124.944660845569L104.1506181488037,125.52521302504894L104.18046643447876,125.47906412529217L104.45905043411254,125.51225150173556L104.55854471969604,125.68151528376526L105.13561157608032,129.43545321390545L105.39429671859742,129.04069157489658L105.48384157562256,128.71247119700854L105.8121727180481,127.6729211137363L105.82212214660645,127.83271025076462L105.91166700363159,127.84297172879332L106.36934071731568,127.76151655369381L106.41908786010742,127.86791531522005L107.47372728729248,128.5096837572001L107.65281700134278,128.6558355433771L107.68266528701781,128.60643810062365L107.89160328674316,128.23384164594083L108.23983328628539,128.0215762962637L108.30947928619385,128.0627038300618L108.4786195716858,128.04250736073774L108.49851842880248,128.05501506749178L108.52836671447754,128.03991179120774L108.73730471420289,128.1299307133226L108.80695071411132,128.21480746938747L109.03578757095337,127.91032920674746L109.20492785644532,127.83475732258265L109.3840175704956,127.84303049640532L109.4437141418457,127.82864549093463L109.5432084274292,127.82486150969528L110.00088214111328,130.6751004863035L110.08047756958007,131.5033222368233L110.28941556930542,130.5421093803472L110.99582499694824,130.83207204282317L111.70223442459107,131.3334022164596L111.7718804244995,131.01155812447357L112.04051499557495,131.04465408463165L112.50813813781738,131.5612050697761L112.59768299484253,131.24785289772407L112.91606470870971,131.0465607671543L113.12500270843506,130.78273336768171L113.55282813644409,130.7287651106616L113.58267642211914,130.7405741358063L113.78166499328613,130.77023872039703L113.85131099319459,130.7187844112236L114.10999613571167,130.58500647223997L114.80645613479614,131.2359296022227L114.89600099182128,131.2711999640248L114.96564699172974,132.10325793366127L115.09498956298829,132.05379519356117L115.31387699127197,134.10599611814632L115.69195527648925,133.58869421351517L115.93074156188965,133.5471977497084L115.99043813323975,133.84127414502439L116.2192749900818,133.29895356201789L116.39836470413208,133.4786192113716L117.09482470321655,133.93944870573796L117.53259955978393,134.0478553606742L117.81118355941771,133.93152813758726L117.84103184509277,133.7893431652203L118.23900898742676,133.65832403913333L118.47779527282714,133.42932297950549L119.12450812911987,133.35988578106L119.90056355667114,132.55543552959426L119.95031069946289,131.91869824817488L119.98015898513793,132.32771103309375L120.23884412765503,135.24979341537212L120.46768098449708,135.2913584413929L120.6766189842224,135.4253192129472L120.835809841156,135.5418423280741L121.0745961265564,136.06864173177792L121.24373641204834,136.13971462875742L121.95014583969116,135.59713612123156L122.14913441085815,135.52731366844074L122.2187804107666,135.65264866050035L123.3430658378601,135.1510409731406L123.37291412353515,135.18430670639998L123.5818521232605,134.99158811744758L123.63159926605225,135.02831134521298L124.16886840820312,135.26430901553616L124.26836269378661,135.3818442395364L124.30816040802003,135.37448196369974L124.59669383621215,123.109475652631L124.91507555007935,135.7680976342746L124.92502497863771,135.9698631706077L125.35285040664672,138.09037817927566L125.44239526367187,137.81458830589372L125.61153554916382,137.58355160148355L125.66128269195556,137.67134878137807L125.75082754898071,137.63783002090034L125.9100184059143,137.57585794161253L126.07915869140625,136.80853576146154L126.47713583374023,136.80224762697753L126.84526469039918,137.25113260420483L126.93480954742431,137.26869432559087L126.94475897598267,137.2698141750862L127.16364640426636,137.38608589542844L127.23329240417482,137.10186613459183L127.5118764038086,137.1435878742446L127.61137068939209,137.04740161773705L127.66111783218383,137.0602358112244L127.77056154632568,137.22791613259744L127.86010640335083,137.25104282035318L127.99939840316773,137.56625106948417L128.377476688385,137.5975856337159L128.40732497406006,137.63836709157667L128.74560554504393,137.8098771023317L128.78540325927736,137.74653867606492L129.0142401161194,137.68271215213178L129.07393668746948,137.66992203435342L129.0938355445862,137.631763897395L129.49181268692016,137.4002293007165L129.55150925827027,137.40227963740182L129.68085182952882,143.05562433336047L129.73059897232056,142.64265289679992L130.36736240005493,139.83344350796978L130.55640154266356,141.02940195814674L130.6459463996887,141.29763856095298L130.825036113739,141.33084226173304L131.09367068481447,141.00811012583233L131.3225075416565,140.83597652541664L131.3424063987732,140.85305014913635L131.35235582733154,140.76311611357215L131.93937211227416,140.28570435801976L132.05876525497436,140.2070488066586L132.43684354019163,140.10379574480805L132.94426439666748,139.34106560056136L133.52133125305176,139.2434656564985L133.87951068115234,139.10757208348286L134.0486509666443,139.22552357806813L134.24763953781127,139.14071048691628L134.5560718231201,139.69016970234713L134.64561668014525,143.14960190711702L134.8147569656372,142.69166835007536L134.894352394104,142.23065439070467L134.98389725112915,141.5935726657816L135.292329536438,141.65525417187678L135.68035725021363,141.912780377396L135.79975039291384,141.51452533034046L135.919143535614,141.45354413828832L136.02858724975584,141.51571700691713L136.16787924957274,141.54424541767585L136.18777810668945,141.65789871441677L136.54595753479003,141.8367905902125L136.90413696289062,141.78156862413636L137.17277153396606,141.83560707580415L137.6204958190918,141.2979062800743L138.0383718185425,141.28278994432094L138.63533753204345,141.0403555880501L138.764680103302,140.96109113893124L138.78457896041868,140.99837918874533L138.99351696014404,140.97337356983928L139.04326410293578,140.97601974481296L139.1825561027527,140.94097629129055L139.2820503883362,140.88460509191307L139.33179753112793,140.83186279257663L139.4014435310364,140.75980553809615L139.59048267364503,148.52733140009607L139.7098758163452,146.85874259257645L140.67497038650515,142.66801112137796L140.82421181488036,142.48935268359656L140.93365552902222,142.3620767279073L140.97345324325562,142.31737906168019L141.1326441001892,142.34798882536393L141.46097524261475,142.68713508178303L141.5505200996399,142.88778729835545L142.18728352737426,142.40531663087006L142.2171318130493,142.32301585513122L142.37632266998293,142.1898729328439L143.2419229545593,141.88565912445793L143.33146781158447,141.92833094050468L143.6399000968933,141.88153069971492L143.85878752517698,141.93167416465403L144.07767495346067,141.9157807904753L144.7243878097534,143.12741713358696L144.8039832382202,141.97485856487214L145.23180866622926,141.19557880811277L145.52034209442138,141.8151853306341L145.97801580810548,141.1762556908004L146.25659980773926,141.8183849006208L146.84361609268188,142.45308490482415L147.0028069496155,142.7044143921447L147.31123923492433,142.70004273478537L147.59977266311645,142.86591921695674L147.84850837707518,142.90354844540715L147.89825551986695,142.87386100674507L148.0275980911255,142.78052824428687L148.21663723373413,142.65947022843395L148.64446266174318,142.99693344574268L148.84345123291016,143.06522630818785L149.42051808929443,142.9718951781633L149.58965837478635,145.99822477439523L149.85829294586182,145.1695345154131L149.86824237442016,145.11754640043063L149.94783780288697,144.88353376944613L150.06723094558717,145.2013930908518L150.18662408828737,145.23184777333722L150.33586551666258,144.5021662486723L150.375663230896,144.6876809078537L150.54480351638793,144.12165412313982L150.90298294448854,144.43788754061347L151.05222437286378,144.42363639470346L151.15171865844727,144.33022690786294L151.18156694412232,144.34463150253762L151.30096008682253,144.35539087283465L151.31090951538087,144.34785882389662L151.35070722961424,144.44114587821218L151.62929122924805,144.40244414084276L152.3655489425659,144.31789876881223L152.72372837066652,144.2248761687507L153.25104808425905,144.34137316493894L153.29084579849243,144.37337539454035L153.4898343696594,144.3387204602306L153.97735636901857,144.25482806166676L154.2658897972107,144.37666148351136L154.6837657966614,144.79229541938227L155.1911866531372,144.68095038384604L155.34042808151244,144.85727444148407L155.42002350997927,144.8871610370535L155.47972008132933,144.85690877634272L156.0070397949219,145.14890055386638L156.0368880805969,145.2253702765479L156.16623065185547,145.06660467542852L156.4348652229309,145.0567268193115L156.68360093688963,145.0473484878965L156.75324693679812,145.03226153594912L156.97213436508179,145.23829751875422L157.31041493606568,145.63539353790645L157.65864493560792,145.59533688059366L157.88748179244993,145.6622258500855L158.04667264938354,145.65507252575816L158.57399236297607,145.7067276242726L158.77298093414308,145.62049431583074L158.80282921981814,145.60023091672636L158.89237407684328,145.54956670544757L158.90232350540163,145.5701663858873L158.9620200767517,145.51144448202984L159.1610086479187,145.4712507002891L159.1809075050354,145.4984470451758L159.99676064682006,147.42941365107203L160.80266436004638,146.5746354696628L161.39963007354737,146.61896910318225L161.4593266448975,146.59364679214485L161.6881635017395,146.57561166499548L162.05629235839845,146.56053287521644L162.0662417869568,146.54133708773008L162.12593835830688,146.62019342843226L162.21548321533203,146.66013091808733L162.38462350082395,146.74759834638118L162.50401664352415,146.8412396388024L162.56371321487427,146.85611763924044L163.1507294998169,146.7281446343755L163.64820092773436,146.72795200720282L164.1158240699768,146.49802535768598L164.4740034980774,139.00707946696264L164.7127897834778,145.4175599569923L164.7426380691528,145.53470339691256L165.48884521102906,146.44152029874786L165.54854178237915,146.2863803328022L165.84702463912964,146.50210970671998L165.9365694961548,146.73270728647384L165.97636721038816,146.71668495003547L166.03606378173828,146.88941602117316L166.6230800666809,146.89058647611216L166.95141120910645,146.93634848908994L166.9613606376648,146.96217032482932L167.0409560661316,146.8877542037005L167.080753780365,146.85041065114174L167.24989406585692,146.97510083190303L167.309590637207,147.07562119979556L167.61802292251585,146.8929649319645L167.88665749359131,147.03502747180647L168.07569663619995,147.16627024130577L168.4040277786255,147.16653959286077L168.41397720718385,147.16172554597776L168.65276349258423,147.26091058313096L169.41886949157714,147.17068434194044L170.0456834907532,147.7885963983158L170.46355949020386,147.92391372224708L170.50335720443724,147.98770922994055L170.94113206100465,147.87606872391066L171.1301712036133,147.8376379705299L171.49830006027224,147.86855626417665L171.7967829170227,147.50443866995852L171.86642891693114,147.41043171239596L172.373849773407,147.72640067561565L172.5429900588989,147.6667482845682L172.60268663024902,147.6809912683099L173.34889377212522,147.92409655481777L173.40859034347534,147.96057491753317L173.68717434310912,148.0493613522297L173.8563146286011,148.01724811713896L173.87621348571776,148.01934416196696L174.19459519958497,147.93136578193543L174.5030274848938,154.01618473384954L175.0900437698364,149.6904844633076L175.19948748397826,148.91547188815292L176.51281205368042,148.35394409062437L176.7515983390808,148.52043763272172L176.84114319610595,148.58818689475586L176.90083976745606,148.60798341783158L177.35851348114014,148.59714569071855L177.3883617668152,148.67692598887606L177.57740090942383,148.67026565951605L177.76644005203246,148.5780380546502L178.89072547912596,148.51493469883138L178.9703209075928,148.51999850806538L179.03001747894288,148.5409116157691L179.6568314781189,149.51967150172823L180.04485919189452,149.84693690592127L180.25379719161987,149.59510136416407L180.8408134765625,149.1560142538041L180.97015604782104,149.06344057300092L181.06965033340452,148.98703941253342L181.10944804763795,148.9659744884987L181.57707118988037,149.1250861655554L182.29343004608154,149.47881495191882L182.51231747436523,149.3618021066919L182.68145775985718,149.32272654201282L183.13913147354125,149.18162387316684L183.47741204452515,149.10494193410867L183.5669569015503,149.14845935079475L184.12412490081786,149.31966736132148L184.66139404296874,148.94374237439231L184.92007918548586,149.59086683123272L184.96982632827758,149.51694860237222L185.6762357559204,149.88021896351736L185.7160334701538,149.95950626670754L186.03441518402101,150.31749733737465L186.52193718338012,150.28120507209724L187.0393074684143,150.31548291422996L187.1388017539978,150.34436556309436L187.14875118255617,150.29133269056524L187.3974868965149,150.2378704879818L187.48703175354004,150.24556741272016L187.62632375335693,150.2255962192421L188.04419975280763,150.33341846292566L188.29293546676638,150.34456308756802L189.03914260864258,150.3197762147733L189.705754322052,148.56395178454048L190.01418660736084,149.6328873062465L190.3524671783447,150.4633716098283L190.58130403518675,150.25543710666884L190.95938232040407,150.4117393653852L191.0091294631958,150.30200064457694L191.05887660598756,150.30297520747595L191.4270054626465,150.51439985381472L191.50660089111327,150.55763812434384L191.64589289093018,150.6182210025813L191.75533660507202,150.46722905058263L191.9344263191223,150.4195652523832L191.95432517623902,150.35353494300006L192.18316203308106,150.41970890654585L192.19311146163943,150.36128410561574L192.20306089019775,150.36716576411675L192.2329091758728,150.41271066341685L192.42194831848144,150.5392144779818L192.77017831802368,150.5889612615399L192.93931860351563,150.6635895990454L193.07861060333252,150.66196043024607L193.28754860305787,150.71360655037535L193.38704288864136,150.67051111779207L193.46663831710816,150.66688140153423L193.56613260269165,150.63319450038884L194.05365460205078,150.63217667799765L194.1332500305176,150.66216040337022L194.45163174438474,151.49228230667802L194.59092374420166,150.6119459275666L194.65062031555178,151.39011318078215L194.78991231536864,150.1312203316709L194.87945717239378,150.34926612896172L194.94910317230224,150.56009983431318L194.95905260086062,150.6704352096266L194.998850315094,150.63764777943152L195.24758602905274,151.0596596336381L195.34708031463623,151.15962252543346L195.54606888580324,151.44634399086428L195.6853608856201,151.45369239101478L196.0435403137207,151.62225994008566L196.1231357421875,151.41836407781753L196.23257945632935,151.47007223042615L196.72010145568848,151.43748477335524L196.73005088424682,151.44985535568128L196.7797980270386,151.3014312218403L197.048432598114,151.21739027181277L197.42651088333128,151.08362457608163L198.5308974533081,150.9768805548349L198.62044231033326,150.98503945830092L198.77963316726684,151.02352000090852L198.8094814529419,151.05674165845892L198.89902630996704,150.97453556387273L199.17761030960082,151.0227437787L199.51589088058472,145.2651918634126L199.52584030914306,144.94182634324926L199.64523345184327,147.4503561425817L200.0332611656189,149.01789240883346L200.28199687957766,149.25749612512632L200.45113716506958,149.6035573705574L200.88891202163697,149.6044731658444L201.12769830703735,149.9371745741475L201.34658573532104,150.0632686478621L201.62516973495482,149.9255026734308L202.1624388771057,149.99612828358562L202.19228716278076,150.07431369405077L202.6002137336731,150.14244331312926L202.6798091621399,150.13883726715957L203.4857128753662,150.35667084807372L203.49566230392455,150.35994551000906L204.36126258850098,150.1084935901635L204.44085801696778,152.51240153201593L204.8885823020935,152.56893842341054L205.4855480155945,151.93814564918833L206.0924631576538,151.87939925882588L206.16210915756224,151.76603735149448L206.4506425857544,151.7055695598305L206.81877144241335,151.71376356062035L206.98791172790527,151.5397804128603L207.40578772735597,151.30105984318112L207.88336029815673,151.39683146153732L208.28133744049072,151.48874155805504L208.53007315444947,151.324817466549L208.7191122970581,151.2694028733002L208.76885943984988,151.20536576542406L208.99769629669188,151.318338337326L209.04744343948366,151.30554903576447L209.09719058227537,151.26230994901854L209.21658372497558,151.17565220782333L209.42552172470093,150.72506133741436L209.89314486694337,151.60355714756662L210.10208286666872,152.11518063168822L210.47021172332762,151.7128632734532L210.62940258026126,151.7660357190608L211.2064694366455,151.84621677968346L211.6442442932129,151.91035020114595L211.6840420074463,151.91222097012795L211.93277772140505,151.86591372430553L212.1914628639221,151.71674601692936L213.02721486282348,151.58080183847005L213.07696200561526,151.6399881697057L213.57443343353273,151.6397506506072L213.7734220046997,151.67151862597743L213.92266343307494,151.74240134443474L213.95251171875,151.77737541952632L214.1713991470337,151.79864358155254L214.23109571838378,151.74600739040443L214.45993257522582,153.14219525683413L214.70866828918457,152.78922718455937L214.72856714630126,152.85632428934366L214.8579097175598,152.93793372942469L215.2558868598938,152.20145475097175L215.3155834312439,152.014756577382L215.45487543106077,151.97872223662392L215.56431914520263,151.9882393249006L215.65386400222778,152.18203858494036L216.11153771591188,151.87954454542222L216.1811837158203,151.92781724137933L216.2209814300537,151.88488750081322L216.2806780014038,151.75341210951643L216.86769428634645,151.92055291156262L217.1363288574219,152.06509022084327L217.36516571426392,152.03834442764855L218.06162571334838,152.008326421169L218.1611199989319,152.08580335542283L218.2805131416321,152.1191931536409L218.60884428405762,152.07858391753197L218.68843971252443,152.1129319543124L218.77798456954957,152.05636812776225L218.847630569458,152.07930708564632L219.245607711792,152.08434477594164L219.37495028305054,153.98147021571097L219.42469742584228,153.0456808811596L219.48439399719237,152.11454235012457L219.51424228286743,151.65584563034372L220.270398853302,151.83674784819996L220.28034828186034,151.76668053035914L220.30024713897706,151.92199108562298L220.71812313842773,152.0220013179947L220.7479714241028,152.09232411170433L221.05640370941163,152.09038478050834L221.32503828048706,152.3298538210237L221.35488656616212,152.36755406033862L221.40463370895384,152.38221984439997L221.8125602798462,152.33506046820355L221.96180170822143,152.40015947417984L222.11104313659666,152.3709984953753L222.20058799362184,152.37785308434164L222.22048685073852,152.34243580350955L222.40952599334716,152.40793802060153L222.60851456451417,152.45677717104098L222.70800885009766,152.46821236887598L222.84730084991455,152.4033827144547L223.25522742080688,152.4523092000953L223.2751262779236,152.4621405318528L223.49401370620728,152.48658214492704L223.72285056304932,152.45818514507846L224.13077713394165,152.4887998060632L224.2601197052002,152.45892463752946L224.27006913375854,152.45052086901345L224.45910827636717,152.1346751545356L224.46905770492552,151.79051079702518L224.48895656204223,151.8201680356644L224.538703704834,151.97322093516726L224.64814741897584,151.82000642473142L225.37445570373538,152.54268317653265L225.74258456039428,152.59943718160494L225.75253398895265,152.59393016663043L225.92167427444457,152.7590475671468L225.96147198867797,152.83739703719547L226.3296008453369,152.8057996511434L226.63803313064574,152.67223719340376L226.6479825592041,152.6879428377108L226.67783084487917,152.71495879867737L226.6877802734375,152.704989526275L227.02606084442138,152.693324155293L227.07580798721312,152.7011720801455L227.16535284423827,152.73537891141373L227.40413912963868,152.7066195112912L227.73247027206423,152.67342886998046L227.97125655746459,152.77443978418984L227.98120598602296,152.78507917061236L228.33938541412354,152.6889149519593L228.7174636993408,152.57399896777721L229.1154408416748,152.78259705522217L229.17513741302488,152.77890612270184L229.1950362701416,152.79809374801988L229.20498569869994,152.80169734533905L229.51341798400878,152.91937867215248L229.60296284103393,152.95471596373488L229.64276055526733,153.14751127706964L230.27952398300172,153.5606173894077L230.92623683929443,153.27859570050327L231.15507369613647,153.31160187680968L231.31426455307007,153.3041620603738L231.99082569503784,153.50421517379058L232.0206739807129,153.52198829533646L232.07042112350464,153.40567413171888L232.73703283691407,153.2924354731293L232.91612255096436,153.22174783049513L233.6623296928406,153.1905161095844L234.05035740661623,153.29595744876514L234.06030683517457,153.29399118241363L234.6871208343506,153.87604438465007L234.8164634056091,153.7392831731406L234.92590711975097,153.5245430540248L235.3139348335266,154.04117239598526L235.4532268333435,153.91784284868515L235.62236711883543,153.78879570246755L235.75170969009397,153.65335512979442L236.04024311828613,153.58522551071593L236.05019254684447,153.57470121086692L236.4581191177368,153.57579330898992L236.6969054031372,153.5538248329207L236.7566019744873,153.5708739701354L236.95559054565427,153.45580453718864L237.0152871170044,153.4952882102844L237.22422511672974,153.48547157042987L237.28392168807983,153.48827854011972L237.75154483032227,153.6281544350652L237.8808874015808,153.66502050077645L238.46790368652344,153.5362941277743L238.78628540039062,153.47687680717485L238.85593140029908,153.4329292442176L239.69168339920046,153.53814857241966L239.89067197036744,153.85405795181052L240.98510911178587,154.21865140044247L241.23384482574463,154.27811606161828L241.2537436828613,154.2530590210517L241.36318739700317,154.36573612245996L241.6318219680786,154.35582888253694L241.70146796798707,154.3786772403525L241.8109116821289,154.36060619966244L241.86065882492068,154.33760684173274L241.9303048248291,154.32809709940756L241.94025425338745,154.28379203347728L242.07954625320434,154.24918607217754L242.35813025283815,154.28888604273413L243.04464082336426,154.1721229598582L243.07448910903932,154.15136493335282L243.4127696800232,154.2046116546923L243.49236510849,154.152681491105L243.82069625091552,153.95631359669073L243.84059510803223,153.96292495304075L243.89034225082398,153.90634480215397L244.20872396469116,153.99232426716065L244.39776310729982,152.6927838197493L245.114121963501,153.8004569923654L245.13402082061768,153.77196531136417L245.27331282043457,154.15676094283802L245.61159339141847,153.92461744840185L246.33790167617798,153.8924601376021L246.4075476760864,153.96632123128427L246.5269408187866,154.06536996022632L247.01446281814574,154.06759251866347L247.03436167526246,154.04169314232493L247.1438053894043,154.04015620602775L247.15375481796266,154.03085623142874L247.20350196075438,154.03516095900775L247.84026538848877,153.87371082072355L248.0492033882141,153.9516799337279L248.07905167388915,153.92176395435249L248.08900110244753,153.92875811639735L249.54161767196658,152.49410766413038L249.58141538619995,152.27500649847408L249.5913648147583,152.33031090245035L249.76050510025024,152.3536359308966L249.90974652862548,152.19618770374623L250.009240814209,152.29861965146245L250.11868452835083,152.50899301051993L250.16843167114257,152.6301555021275L250.1783810997009,152.67780460842394L250.21817881393432,152.78323207191852L250.25797652816775,152.9088731452906L250.31767309951783,152.8186444554496L250.5564593849182,153.2268377586678L250.65595367050173,153.158033944485L250.9146388130188,153.30126285818181L250.9345376701355,153.3423952892809L251.02408252716063,153.44260059747577L251.36236309814453,153.73518658085408L251.5911999549866,153.7048886120007L251.92948052597046,153.61900056327934L252.0986208114624,153.70092587927485L252.3374070968628,153.846645886747L252.52644623947143,153.7573999219733L252.66573823928832,153.8229511120753L252.99406938171387,153.86319713169337L254.11835480880737,153.99900581815834L254.6058768081665,154.2635384289749L255.21279195022584,154.0733174635325L255.4117805213928,154.1275232396511L255.52122423553467,154.27300491180793L255.72021280670165,154.07084922382847L256.3171785202026,154.0413568609896L256.4465210914612,153.9995143212455L256.8146499481201,154.16054982137834L257.0136385192871,154.150482602956L257.12308223342893,154.12235740331295L257.978733089447,154.23836711805168L258.0782273750305,154.22363032312583L258.94382765960694,154.26601564706408L259.4810968017578,154.87939361893024L259.84922565841674,155.1198323250436L259.86912451553343,155.2158316678963L260.15765794372555,154.986367813324L260.5456856575012,154.8783317208301L261.023258228302,154.8520993280235L261.5008307991028,154.67015969857212L261.5207296562195,154.66977689287728L261.6003250846863,154.57853854281342L261.89880794143676,154.50054331087043L262.09779651260374,154.44194139088745L262.1276447982788,154.48375699547606L262.2669367980957,154.50410446491426L262.83405422592165,154.45937006892967L263.78919936752317,154.6065225369443L264.23692365264895,154.9529951556594L264.2767213668823,153.9572897920234L264.87368708038326,155.30747404529268L265.3313607940674,155.06883754594733L265.62984365081786,155.07494529651117L265.8487310791016,155.01617768451104L265.9283265075684,155.01998043873755L266.117365650177,154.82427776104245L266.5551405067444,154.73154002065576L266.92326936340334,154.87423757719407L267.142156791687,154.83567296425267L267.44063964843747,154.92761326079318L267.5998305053711,154.97467877205378L267.6595270767212,155.00403645911518L267.74907193374634,154.98399833585682L267.98785821914674,155.03949210213844L268.06745364761355,154.97204157546528L268.27639164733887,154.90417232955664L268.39578479003904,154.88433417942244L268.4156836471558,154.87301325194406L268.5151779327393,154.78492141777272L268.7241159324646,154.80665727204442L269.1121436462402,154.85538296834403L269.13204250335696,154.8323640212103" fill="none"></path></g></g></g></g></g></g><g transform="translate(51, 178)" clip-path="url(#clip_1)"><clipPath id="clip_1"><rect width="278" height="21"></rect></clipPath><g><g><line x1="0" y1="0" x2="0" y2="5" style="visibility: inherit;" fill="rgb(0, 0, 0)" stroke="rgb(204, 204, 204)" stroke-width="1px"></line><line x1="19.89885711669922" y1="0" x2="19.89885711669922" y2="5" style="visibility: inherit;" fill="rgb(0, 0, 0)" stroke="rgb(204, 204, 204)" stroke-width="1px"></line><line x1="39.79771423339844" y1="0" x2="39.79771423339844" y2="5" style="visibility: inherit;" fill="rgb(0, 0, 0)" stroke="rgb(204, 204, 204)" stroke-width="1px"></line><line x1="59.696571350097656" y1="0" x2="59.696571350097656" y2="5" style="visibility: inherit;" fill="rgb(0, 0, 0)" stroke="rgb(204, 204, 204)" stroke-width="1px"></line><line x1="79.59542846679688" y1="0" x2="79.59542846679688" y2="5" style="visibility: inherit;" fill="rgb(0, 0, 0)" stroke="rgb(204, 204, 204)" stroke-width="1px"></line><line x1="99.4942855834961" y1="0" x2="99.4942855834961" y2="5" style="visibility: inherit;" fill="rgb(0, 0, 0)" stroke="rgb(204, 204, 204)" stroke-width="1px"></line><line x1="119.39314270019531" y1="0" x2="119.39314270019531" y2="5" style="visibility: inherit;" fill="rgb(0, 0, 0)" stroke="rgb(204, 204, 204)" stroke-width="1px"></line><line x1="139.29199981689453" y1="0" x2="139.29199981689453" y2="5" style="visibility: inherit;" fill="rgb(0, 0, 0)" stroke="rgb(204, 204, 204)" stroke-width="1px"></line><line x1="159.19085693359375" y1="0" x2="159.19085693359375" y2="5" style="visibility: inherit;" fill="rgb(0, 0, 0)" stroke="rgb(204, 204, 204)" stroke-width="1px"></line><line x1="179.08971405029297" y1="0" x2="179.08971405029297" y2="5" style="visibility: inherit;" fill="rgb(0, 0, 0)" stroke="rgb(204, 204, 204)" stroke-width="1px"></line><line x1="198.9885711669922" y1="0" x2="198.9885711669922" y2="5" style="visibility: inherit;" fill="rgb(0, 0, 0)" stroke="rgb(204, 204, 204)" stroke-width="1px"></line><line x1="218.8874282836914" y1="0" x2="218.8874282836914" y2="5" style="visibility: inherit;" fill="rgb(0, 0, 0)" stroke="rgb(204, 204, 204)" stroke-width="1px"></line><line x1="238.78628540039062" y1="0" x2="238.78628540039062" y2="5" style="visibility: inherit;" fill="rgb(0, 0, 0)" stroke="rgb(204, 204, 204)" stroke-width="1px"></line><line x1="258.68514251708984" y1="0" x2="258.68514251708984" y2="5" style="visibility: inherit;" fill="rgb(0, 0, 0)" stroke="rgb(204, 204, 204)" stroke-width="1px"></line><line x1="278.58399963378906" y1="0" x2="278.58399963378906" y2="5" style="visibility: inherit;" fill="rgb(0, 0, 0)" stroke="rgb(204, 204, 204)" stroke-width="1px"></line></g><g transform="translate(0, 8)"><text style="text-anchor: middle; visibility: hidden; font-family: &quot;Helvetica Neue&quot;, sans-serif; font-size: 12px; font-weight: 200;" x="0" y="0" dx="0em" dy="0.95em" fill="rgb(50, 49, 63)" stroke="none" stroke-width="1px">-2k</text><text style="text-anchor: middle; visibility: hidden; font-family: &quot;Helvetica Neue&quot;, sans-serif; font-size: 12px; font-weight: 200;" x="19.89885711669922" y="0" dx="0em" dy="0.95em" fill="rgb(50, 49, 63)" stroke="none" stroke-width="1px">0</text><text style="text-anchor: middle; visibility: hidden; font-family: &quot;Helvetica Neue&quot;, sans-serif; font-size: 12px; font-weight: 200;" x="39.79771423339844" y="0" dx="0em" dy="0.95em" fill="rgb(50, 49, 63)" stroke="none" stroke-width="1px">2k</text><text style="text-anchor: middle; visibility: hidden; font-family: &quot;Helvetica Neue&quot;, sans-serif; font-size: 12px; font-weight: 200;" x="59.696571350097656" y="0" dx="0em" dy="0.95em" fill="rgb(50, 49, 63)" stroke="none" stroke-width="1px">4k</text><text style="text-anchor: middle; visibility: hidden; font-family: &quot;Helvetica Neue&quot;, sans-serif; font-size: 12px; font-weight: 200;" x="79.59542846679688" y="0" dx="0em" dy="0.95em" fill="rgb(50, 49, 63)" stroke="none" stroke-width="1px">6k</text><text style="text-anchor: middle; visibility: hidden; font-family: &quot;Helvetica Neue&quot;, sans-serif; font-size: 12px; font-weight: 200;" x="99.4942855834961" y="0" dx="0em" dy="0.95em" fill="rgb(50, 49, 63)" stroke="none" stroke-width="1px">8k</text><text style="text-anchor: middle; visibility: hidden; font-family: &quot;Helvetica Neue&quot;, sans-serif; font-size: 12px; font-weight: 200;" x="119.39314270019531" y="0" dx="0em" dy="0.95em" fill="rgb(50, 49, 63)" stroke="none" stroke-width="1px">10k</text><text style="text-anchor: middle; visibility: hidden; font-family: &quot;Helvetica Neue&quot;, sans-serif; font-size: 12px; font-weight: 200;" x="139.29199981689453" y="0" dx="0em" dy="0.95em" fill="rgb(50, 49, 63)" stroke="none" stroke-width="1px">12k</text><text style="text-anchor: middle; visibility: hidden; font-family: &quot;Helvetica Neue&quot;, sans-serif; font-size: 12px; font-weight: 200;" x="159.19085693359375" y="0" dx="0em" dy="0.95em" fill="rgb(50, 49, 63)" stroke="none" stroke-width="1px">14k</text><text style="text-anchor: middle; visibility: hidden; font-family: &quot;Helvetica Neue&quot;, sans-serif; font-size: 12px; font-weight: 200;" x="179.08971405029297" y="0" dx="0em" dy="0.95em" fill="rgb(50, 49, 63)" stroke="none" stroke-width="1px">16k</text><text style="text-anchor: middle; visibility: hidden; font-family: &quot;Helvetica Neue&quot;, sans-serif; font-size: 12px; font-weight: 200;" x="198.9885711669922" y="0" dx="0em" dy="0.95em" fill="rgb(50, 49, 63)" stroke="none" stroke-width="1px">18k</text><text style="text-anchor: middle; visibility: hidden; font-family: &quot;Helvetica Neue&quot;, sans-serif; font-size: 12px; font-weight: 200;" x="218.8874282836914" y="0" dx="0em" dy="0.95em" fill="rgb(50, 49, 63)" stroke="none" stroke-width="1px">20k</text><text style="text-anchor: middle; visibility: hidden; font-family: &quot;Helvetica Neue&quot;, sans-serif; font-size: 12px; font-weight: 200;" x="238.78628540039062" y="0" dx="0em" dy="0.95em" fill="rgb(50, 49, 63)" stroke="none" stroke-width="1px">22k</text><text style="text-anchor: middle; visibility: hidden; font-family: &quot;Helvetica Neue&quot;, sans-serif; font-size: 12px; font-weight: 200;" x="258.68514251708984" y="0" dx="0em" dy="0.95em" fill="rgb(50, 49, 63)" stroke="none" stroke-width="1px">24k</text><text style="text-anchor: middle; visibility: hidden; font-family: &quot;Helvetica Neue&quot;, sans-serif; font-size: 12px; font-weight: 200;" x="278.58399963378906" y="0" dx="0em" dy="0.95em" fill="rgb(50, 49, 63)" stroke="none" stroke-width="1px">26k</text></g><line x1="0" y1="0" x2="278.58399963378906" y2="0" fill="rgb(0, 0, 0)" stroke="rgb(204, 204, 204)" stroke-width="1px"></line></g></g></g></g></svg>